<svg version="1.1" xmlns="http://www.w3.org/2000/svg" viewBox="0.39 4.34 30.61 22.62"> <title>discord</title> <path d="M26.757 6.848c-2.649-2.13-6.84-2.49-7.018-2.506-0.28-0.024-0.545 0.135-0.659 0.391-0.008 0.017-0.1 0.227-0.202 0.554 1.752 0.295 3.904 0.89 5.852 2.099 0.312 0.193 0.408 0.604 0.214 0.917-0.125 0.203-0.344 0.314-0.566 0.314-0.12 0-0.241-0.032-0.351-0.1-3.347-2.076-7.53-2.18-8.334-2.18s-4.988 0.104-8.333 2.18c-0.313 0.195-0.722 0.097-0.917-0.214-0.195-0.313-0.097-0.722 0.214-0.917 1.948-1.208 4.099-1.805 5.852-2.099-0.103-0.328-0.195-0.537-0.202-0.554-0.115-0.256-0.38-0.417-0.661-0.39-0.177 0.014-4.367 0.374-7.053 2.535-1.402 1.295-4.206 8.875-4.206 15.428 0 0.115 0.031 0.23 0.088 0.33 1.935 3.399 7.214 4.289 8.417 4.328 0.007 0 0.014 0 0.021 0 0.213 0 0.413-0.102 0.538-0.274l1.217-1.672c-3.282-0.849-4.959-2.289-5.056-2.374-0.275-0.243-0.302-0.664-0.058-0.939s0.662-0.302 0.938-0.060c0.040 0.036 3.128 2.656 9.199 2.656 6.083 0 9.17-2.631 9.201-2.657 0.275-0.239 0.696-0.214 0.938 0.063 0.242 0.275 0.216 0.694-0.058 0.936-0.097 0.086-1.774 1.525-5.056 2.374l1.217 1.672c0.125 0.173 0.326 0.274 0.538 0.274 0.007 0 0.014 0 0.021 0 1.203-0.038 6.482-0.928 8.417-4.328 0.056-0.1 0.086-0.213 0.086-0.328 0-6.553-2.803-14.133-4.241-15.459zM11.367 19.645c-1.286 0-2.329-1.192-2.329-2.662s1.042-2.662 2.329-2.662 2.329 1.192 2.329 2.662c0 1.469-1.042 2.662-2.329 2.662zM20.018 19.645c-1.286 0-2.329-1.192-2.329-2.662s1.042-2.662 2.329-2.662c1.286 0 2.329 1.192 2.329 2.662s-1.043 2.662-2.329 2.662z"></path> </svg>
