<?xml version="1.0" encoding="utf-8"?>
<!-- Generator: Adobe Illustrator 22.0.0, SVG Export Plug-In . SVG Version: 6.00 Build 0)  -->
<svg version="1.1" id="Calque_1" xmlns="http://www.w3.org/2000/svg" xmlns:xlink="http://www.w3.org/1999/xlink" x="0px" y="0px"
	 viewBox="0 0 18 18" style="enable-background:new 0 0 18 18;" xml:space="preserve">
<desc>Created with Sketch.</desc>
<path d="M14.5,0h-11C1.6,0,0,1.6,0,3.5v11C0,16.4,1.6,18,3.5,18h11c1.9,0,3.5-1.6,3.5-3.5v-11C18,1.6,16.4,0,14.5,0z M15.5,2.1
	l0.4,0v3.1l-3,0l0-3.1L15.5,2.1z M6.4,7.2C7,6.4,7.9,5.8,9,5.8c1.1,0,2,0.5,2.6,1.3c0.4,0.5,0.6,1.2,0.6,1.8c0,1.7-1.4,3.2-3.2,3.2
	c-1.7,0-3.2-1.4-3.2-3.2C5.8,8.3,6.1,7.7,6.4,7.2z M16.2,14.5c0,1-0.8,1.7-1.7,1.7h-11c-1,0-1.7-0.8-1.7-1.7V7.2h2.7
	C4.2,7.7,4.1,8.3,4.1,9c0,2.7,2.2,4.9,4.9,4.9c2.7,0,4.9-2.2,4.9-4.9c0-0.7-0.1-1.3-0.4-1.8h2.7V14.5z"/>
</svg>
