<?xml version="1.0" encoding="utf-8"?>
<!-- Generator: Adobe Illustrator 22.0.0, SVG Export Plug-In . SVG Version: 6.00 Build 0)  -->
<svg version="1.1" id="Calque_1" xmlns="http://www.w3.org/2000/svg" xmlns:xlink="http://www.w3.org/1999/xlink" x="0px" y="0px"
	 viewBox="0 0 26 26" style="enable-background:new 0 0 26 26;" xml:space="preserve">
<g>
	<rect x="0.4" y="8.6" width="5.4" height="17.4"/>
	<path d="M3.1,0C1.4,0,0,1.4,0,3.1c0,1.7,1.4,3.1,3.1,3.1c1.7,0,3.1-1.4,3.1-3.1C6.3,1.4,4.9,0,3.1,0z"/>
	<path d="M19.5,8.2c-2.6,0-4.4,1.4-5.1,2.8h-0.1V8.6H9.2V26h5.4v-8.6c0-2.3,0.4-4.5,3.2-4.5c2.8,0,2.8,2.6,2.8,4.6V26H26v-9.5
		C26,11.8,25,8.2,19.5,8.2z"/>
</g>
</svg>
