<?xml version="1.0" encoding="utf-8"?>
<!-- Generator: Adobe Illustrator 22.0.0, SVG Export Plug-In . SVG Version: 6.00 Build 0)  -->
<svg version="1.1" id="Calque_1" xmlns="http://www.w3.org/2000/svg" xmlns:xlink="http://www.w3.org/1999/xlink" x="0px" y="0px"
	 viewBox="0 0 22 22" style="enable-background:new 0 0 22 22;" xml:space="preserve">
<desc>Created with Sketch.</desc>
<path d="M21.4,4c-0.1-0.1-0.2-0.2-0.4-0.3c-0.3-0.1-0.6-0.2-0.9-0.2H1.8C0.8,3.5,0,4.3,0,5.3v11.4c0,1,0.8,1.8,1.8,1.8h18.4
	c1,0,1.8-0.8,1.8-1.8V5.3C22,4.8,21.8,4.3,21.4,4z M18.6,5L11,10.1L3.2,5H18.6z M20.5,16.7c0,0.1-0.1,0.3-0.3,0.3H1.8
	c-0.1,0-0.3-0.1-0.3-0.3v-11l9.1,6c0.1,0.1,0.3,0.1,0.4,0.1c0.1,0,0.3,0,0.4-0.1l9-6.1V16.7z"/>
</svg>
