<?xml version="1.0" encoding="utf-8"?>
<!-- Generator: Adobe Illustrator 22.0.0, SVG Export Plug-In . SVG Version: 6.00 Build 0)  -->
<svg version="1.1" id="Calque_1" xmlns="http://www.w3.org/2000/svg" xmlns:xlink="http://www.w3.org/1999/xlink" x="0px" y="0px"
	 viewBox="0 0 18 18" style="enable-background:new 0 0 18 18;" xml:space="preserve">
<desc>Created with Sketch.</desc>
<g id="Symbols">
	<g id="FOOTER" transform="translate(-1448.000000, -370.000000)">
		<g id="reseaux" transform="translate(0.000000, 12.000000)">
			<g transform="translate(1318.000000, 357.000000)">
				<path id="Fill-29" d="M139.4,1c-5.4,0-7.4,3.4-7.4,6.4c0,2.2,1.6,4.3,2.5,4.7c0.1,0,0.2,0,0.2,0c0.1,0,0.1-0.1,0.2-0.2l0.6-2.1
					c0-0.1,0-0.2-0.1-0.3c-0.4-0.4-0.8-1.1-0.8-1.9c0-2.6,1.7-4.2,4.7-4.2c2.3,0,4.1,1.7,4.1,3.9c0,2-1.6,4.2-2.9,4.2
					c-1.2,0-1.7-0.7-1.6-1.3c0.8-0.8,1.1-2.6,1.1-3c0-0.2,0-0.6-0.3-1c-0.3-0.3-0.8-0.4-1.5-0.4c-1.7,0-2.2,1.4-2.2,2.2
					c0,0.6,0.4,1.5,0.4,1.5l-1.6,7.4c0,0.1-0.2,1.1,0.5,1.9c0.1,0.1,0.1,0.1,0.2,0.1c0.1,0,0.1,0,0.2-0.1c0.3-0.2,0.9-0.7,1.2-1.3
					c0.3-0.7,1.3-3.5,1.7-4.6c0,0,0,0,0.1,0c0,0,0.1,0,0.1,0c0,0,0.7,0.6,2.1,0.6c4.1,0,5.2-3.9,5.2-6.2C146,5,144.6,1,139.4,1"/>
			</g>
		</g>
	</g>
</g>
</svg>
