<svg xmlns="http://www.w3.org/2000/svg" x="0px" y="0px" viewBox="0 0 18 18">
  <path d="M9.4 0C4 0 2 3.4 2 6.4c0 2.2 1.6 4.3 2.5 4.7h.2c.1 0 .1-.1.2-.2l.6-2.1c0-.1 0-.2-.1-.3-.4-.4-.8-1.1-.8-1.9 0-2.6 1.7-4.2 4.7-4.2 2.3 0 4.1 1.7 4.1 3.9 0 2-1.6 4.2-2.9 4.2-1.2 0-1.7-.7-1.6-1.3.8-.8 1.1-2.6 1.1-3 0-.2 0-.6-.3-1-.3-.3-.8-.4-1.5-.4C6.5 4.8 6 6.2 6 7c0 .6.4 1.5.4 1.5l-1.6 7.4c0 .1-.2 1.1.5 1.9.1.1.1.1.2.1s.1 0 .2-.1c.3-.2.9-.7 1.2-1.3.3-.7 1.3-3.5 1.7-4.6h.2s.7.6 2.1.6c4.1 0 5.2-3.9 5.2-6.2C16 4 14.6 0 9.4 0"/>
</svg>
