<svg xmlns="http://www.w3.org/2000/svg" x="0px" y="0px" viewBox="0 0 511.976 511.976">
  <path d="M259.64 15.99l-8.8.1c-11.36 0-34.12 1.6-58.53 12.35a130.28 130.28 0 00-37.35 24.67c-12.9 12.22-23.39 27.26-31.2 44.73-11.45 25.57-8.73 68.68-6.56 103.3v.06c.23 3.72.48 7.59.7 11.36a20.51 20.51 0 01-8.38 1.57c-6.46 0-14.14-2.05-22.81-6.11a20.5 20.5 0 00-8.67-1.8 30.59 30.59 0 00-15.33 4.3c-5.95 3.48-9.8 8.38-10.85 13.85-.67 3.59-.64 10.72 7.3 17.95 4.38 3.97 10.78 7.65 19.07 10.92 2.17.86 4.77 1.66 7.49 2.52 9.47 3.01 23.84 7.56 27.58 16.32 1.89 4.45 1.06 10.3-2.43 17.41-.1.2-.2.39-.26.58-.9 2.05-9.05 20.45-25.79 39.87-9.5 11.04-19.97 20.29-31.1 27.46a114.47 114.47 0 01-43.68 16.99A11.95 11.95 0 00.02 386.87c.1 1.76.51 3.52 1.25 5.21v.04c2.46 5.72 8.13 10.56 17.34 14.81 11.27 5.22 28.1 9.6 50.08 13.03 1.12 2.1 2.27 7.39 3.07 11 .84 3.84 1.7 7.81 2.95 12 1.34 4.55 4.8 9.99 13.73 9.99 3.39 0 7.26-.77 11.77-1.63 6.6-1.28 15.62-3.04 26.85-3.04 6.24 0 12.7.54 19.2 1.63 12.54 2.08 23.36 9.7 35.87 18.53 18.3 12.92 39.04 27.55 70.72 27.55.87 0 1.73-.03 2.6-.1 1.02.07 2.33.1 3.67.1 31.68 0 52.42-14.63 70.72-27.52l.04-.03c12.5-8.8 23.32-16.42 35.87-18.5 6.5-1.09 12.96-1.63 19.2-1.63 10.75 0 19.26 1.37 26.85 2.85 4.96.96 8.8 1.44 11.77 1.44h.58c6.53 0 11.33-3.59 13.15-9.83 1.22-4.13 2.08-7.97 2.94-11.9.74-3.4 1.96-8.83 3.04-10.95 21.99-3.45 38.82-7.8 50.08-13.02 9.19-4.26 14.85-9.09 17.32-14.78a15.2 15.2 0 001.28-5.28 11.9 11.9 0 00-10.02-12.42c-68.45-11.26-99.3-81.38-100.54-84.35-.1-.2-.16-.39-.3-.58-3.48-7.1-4.31-12.96-2.4-17.4 3.75-8.77 18.09-13.32 27.56-16.33 2.75-.86 5.34-1.7 7.49-2.52 9.34-3.68 16-7.68 20.41-12.2 5.25-5.4 6.28-10.59 6.21-13.95-.16-8.19-6.43-15.49-16.45-19.04a29.73 29.73 0 00-11.13-2.11c-2.66 0-6.63.35-10.37 2.11-8 3.75-15.17 5.8-21.34 6.08a19.6 19.6 0 01-7.08-1.53c.2-3.2.39-6.5.61-9.9l.1-1.46c2.2-34.66 4.93-77.76-6.53-103.36-7.84-17.54-18.37-32.61-31.33-44.84a131 131 0 00-37.47-24.7 148.06 148.06 0 00-58.46-12.35h-1.28z" color="#000"/>
</svg>
