<svg xmlns="http://www.w3.org/2000/svg" width="512" height="512">
  <path d="M267.57.4v228.07l-.1 124.93c0 33.4-21.75 61.72-51.9 71.68a75.91 75.91 0 01-28.04 3.72 75.23 75.23 0 01-34.56-10.6c-21.77-13.02-36.53-36.64-36.93-63.66-.63-42.23 33.51-76.66 75.71-76.66a75.9 75.9 0 0123.82 3.83v-84.74a164.26 164.26 0 00-24.07-1.79c-46.19 0-89.39 19.2-120.27 53.8a156.58 156.58 0 00-39.5 94.45c-2.83 45.94 13.98 89.61 46.58 121.83 4.8 4.73 9.82 9.12 15.08 13.17 27.95 21.51 62.12 33.17 98.11 33.17 8.13 0 16.17-.6 24.07-1.77a159.53 159.53 0 0089.12-44.57c30.08-29.73 46.7-69.2 46.88-111.2l-.43-186.57a210.86 210.86 0 0046.88 27.34 211 211 0 0082.54 16.64v-83.11c.02.03-.22.03-.24.03a128.8 128.8 0 01-77.83-26 129.1 129.1 0 01-51.45-102h-83.47z" color="#000"/>
</svg>
