<?xml version="1.0" encoding="utf-8"?>
<!-- Generator: Adobe Illustrator 22.0.0, SVG Export Plug-In . SVG Version: 6.00 Build 0)  -->
<svg version="1.1" id="Calque_1" xmlns="http://www.w3.org/2000/svg" xmlns:xlink="http://www.w3.org/1999/xlink" x="0px" y="0px"
	 viewBox="0 0 200 200" style="enable-background:new 0 0 200 200;" xml:space="preserve">
<path d="M200,37.8c-7.4,3.3-15.3,5.5-23.6,6.5c8.5-5.1,15-13.2,18-22.8c-7.9,4.7-16.7,8.1-26.1,10c-7.5-8-18.1-13-29.9-13
	c-22.7,0-41,18.4-41,41.2c0,3.2,0.4,6.4,1.1,9.4c-34.1-1.7-64.3-18.1-84.6-43c-3.5,6.1-5.6,13.1-5.6,20.7C8.4,61,15.6,73.6,26.6,81
	c-6.7-0.2-13.1-2.1-18.6-5.1c0,0.2,0,0.3,0,0.5c0,19.9,14.1,36.6,32.9,40.3c-3.4,0.9-7.1,1.4-10.8,1.4c-2.6,0-5.2-0.3-7.7-0.7
	c5.2,16.3,20.4,28.2,38.3,28.6c-14,11-31.7,17.6-51,17.6c-3.3,0-6.6-0.2-9.8-0.6c18.2,11.7,39.7,18.5,62.9,18.5
	c75.5,0,116.7-62.7,116.7-117.1c0-1.8,0-3.6-0.1-5.3C187.6,53.3,194.5,46.1,200,37.8"/>
</svg>
