<svg xmlns="http://www.w3.org/2000/svg" fill-rule="evenodd" stroke-linejoin="round" stroke-miterlimit="2" clip-rule="evenodd" viewBox="0 76.8 512 358.4">
    <path fill-rule="nonzero" d="M501.3 132.76a64.11 64.11 0 00-45.26-45.26C416.1 76.8 256 76.8 256 76.8s-160.1 0-200.04 10.7a64.12 64.12 0 00-45.26 45.26C0 172.7 0 256 0 256s0 83.31 10.7 123.23a64.12 64.12 0 0045.26 45.27C95.9 435.2 256 435.2 256 435.2s160.1 0 200.04-10.7a64.12 64.12 0 0045.26-45.26C512 339.3 512 256 512 256s0-83.3-10.7-123.23zM204.8 332.8V179.2L337.82 256 204.8 332.8z"></path>
</svg>
