<svg xmlns="http://www.w3.org/2000/svg" preserveAspectRatio="xMidYMid" width="16" height="14" viewBox="0 0 16 14"><defs><style></style></defs><path d="M11.5 0c-1.202 0-2.165.432-3.015 1.282h-.002v.002L8 1.892l-.483-.572s-.002 0-.002-.002C6.665.468 5.702 0 4.5 0 3.298 0 2.168.468 1.318 1.318.468 2.168 0 3.298 0 4.5s.468 2.33 1.317 3.18l5.973 6.025c.188.19.443.295.71.295.267 0 .522-.106.71-.295l5.973-6.024C15.533 6.836 16 5.706 16 4.5c0-1.2-.468-2.332-1.318-3.182C13.832.468 12.702 0 11.5 0z" id="path-1" class="cls-2" fill-rule="evenodd"/></svg>